<?xml version="1.0" encoding="UTF-8" standalone="no"?>
<!-- Created with Inkscape (http://www.inkscape.org/) -->

<svg
   width="33.866665mm"
   height="33.866665mm"
   viewBox="0 0 33.866664 33.866665"
   version="1.1"
   id="svg1"
   xml:space="preserve"
   inkscape:version="1.3.2 (091e20e, 2023-11-25, custom)"
   sodipodi:docname="favicon.svg"
   xmlns:inkscape="http://www.inkscape.org/namespaces/inkscape"
   xmlns:sodipodi="http://sodipodi.sourceforge.net/DTD/sodipodi-0.dtd"
   xmlns="http://www.w3.org/2000/svg"
   xmlns:svg="http://www.w3.org/2000/svg"><sodipodi:namedview
     id="namedview1"
     pagecolor="#ffffff"
     bordercolor="#000000"
     borderopacity="0.25"
     inkscape:showpageshadow="2"
     inkscape:pageopacity="0.0"
     inkscape:pagecheckerboard="0"
     inkscape:deskcolor="#d1d1d1"
     inkscape:document-units="mm"
     inkscape:zoom="4.3509259"
     inkscape:cx="63.779528"
     inkscape:cy="31.372633"
     inkscape:window-width="2497"
     inkscape:window-height="1417"
     inkscape:window-x="1495"
     inkscape:window-y="483"
     inkscape:window-maximized="1"
     inkscape:current-layer="layer1" /><defs
     id="defs1" /><g
     inkscape:label="Layer 1"
     inkscape:groupmode="layer"
     id="layer1"
     transform="translate(-82.272364,-32.718687)"><circle
       style="fill:#ff9413;fill-opacity:1;stroke-width:0.264583"
       id="path2"
       cx="99.205696"
       cy="49.65202"
       r="16.933332" /><path
       style="fill:#263842;fill-opacity:1;stroke-width:0.840314"
       d="m 101.02356,60.3809 c -0.0703,-0.337497 -0.43143,-2.508951 -0.80234,-4.825454 -0.370918,-2.316505 -0.716455,-4.253884 -0.767863,-4.305286 -0.05138,-0.05139 -0.924116,0.534704 -1.939377,1.30246 -2.024454,1.530928 -5.541938,3.323825 -6.521013,3.323825 -0.470868,0 -4.917944,-2.385055 -5.639493,-3.024571 -0.048,-0.04254 0.03929,-0.229837 0.193973,-0.416218 0.225047,-0.271165 0.847301,-0.338872 3.11436,-0.338872 2.598653,0 2.886203,-0.04135 3.474521,-0.499699 0.860877,-0.67069 1.629204,-1.316588 2.062821,-1.734121 0.196483,-0.189194 1.055804,-0.939567 1.909601,-1.667496 0.853798,-0.72793 1.904321,-1.638815 2.334498,-2.024193 2.432612,-2.17929 6.777332,-5.678471 7.501142,-6.041341 1.69971,-0.852111 3.54141,-0.793521 4.03478,0.128354 0.44707,0.835365 -0.4346,2.083642 -3.03882,4.302368 -1.34856,1.148934 -2.51832,2.239046 -2.59949,2.422471 -0.0812,0.183425 -0.374,3.009385 -0.65075,6.279911 -0.54203,6.405397 -0.51013,6.285584 -1.94532,7.308609 l -0.59327,0.422884 z M 91.821695,47.054508 c -1.279616,-0.437437 -2.254341,-0.889909 -2.209145,-1.025496 0.04448,-0.133457 0.459046,-0.548664 0.921248,-0.922681 0.922457,-0.746465 0.698357,-0.729829 5.3048,-0.393783 l 2.171539,0.158416 -1.767453,1.500747 c -0.972099,0.825411 -1.849243,1.492849 -1.949207,1.483195 -0.09997,-0.0096 -1.212266,-0.369833 -2.471782,-0.800398 z"
       id="path1" /></g></svg>
